<svg data-v-423bf9ae="" xmlns="http://www.w3.org/2000/svg" viewBox="0 0 255.72719115880437 60" class="font"><!----><!----><defs data-v-423bf9ae=""><linearGradient data-v-423bf9ae="" gradientTransform="rotate(25)" id="c5894ca7-638e-403a-bcf9-9981089b2f31" x1="0%" y1="0%" x2="100%" y2="0%"><stop data-v-423bf9ae="" offset="0%" style="stop-color: rgb(146, 13, 233); stop-opacity: 1;"></stop><stop data-v-423bf9ae="" offset="100%" style="stop-color: rgb(21, 54, 241); stop-opacity: 1;"></stop></linearGradient></defs><g data-v-423bf9ae="" id="3361532a-1f10-4eb2-9d51-d42f89f7ff2a" fill="url(#c5894ca7-638e-403a-bcf9-9981089b2f31)" transform="matrix(4.9301560907032815,0,0,4.9301560907032815,-3.155299082610526,-18.093674182696418)"><path d="M4.91 8.24L4.91 8.24L4.91 8.24Q6.54 8.42 7.29 8.65L7.29 8.65L7.29 8.65Q7.29 9.02 7.13 9.20L7.13 9.20L7.13 9.20Q6.01 9.27 4.72 9.56L4.72 9.56L4.72 9.56Q4.54 10.99 4.42 12.52L4.42 12.52L4.42 12.52Q4.42 12.61 4.20 12.79L4.20 12.79L4.20 12.79Q3.98 12.97 3.82 12.97L3.82 12.97L0.64 12.97L0.64 12.97Q1.55 9.66 1.99 4.12L1.99 4.12L1.99 4.12Q1.99 4.03 2.21 3.85L2.21 3.85L2.21 3.85Q2.44 3.67 2.60 3.67L2.60 3.67L5.77 3.67L5.77 3.67Q5.25 5.93 4.91 8.24ZM7.85 7.81L7.85 7.81L7.85 7.81Q7.68 6.78 7.23 5.76L7.23 5.76L7.23 5.76Q6.77 4.73 6.30 4.22L6.30 4.22L6.30 4.22Q6.34 3.89 6.50 3.67L6.50 3.67L8.98 3.67L8.98 3.67Q8.93 4.33 8.78 5.45L8.78 5.45L8.78 5.45Q8.62 6.57 8.44 7.36L8.44 7.36L8.44 7.36Q8.42 7.47 8.21 7.64L8.21 7.64L8.21 7.64Q8.00 7.81 7.85 7.81ZM7.53 10.17L7.53 10.17L7.53 10.17Q7.61 10.07 7.88 9.89L7.88 9.89L7.88 9.89Q8.14 9.71 8.29 9.71L8.29 9.71L8.29 9.71Q8.06 11.74 7.85 12.48L7.85 12.48L7.85 12.48Q7.79 12.62 7.61 12.80L7.61 12.80L7.61 12.80Q7.42 12.97 7.31 12.97L7.31 12.97L4.80 12.97L4.80 12.97Q6.48 11.85 7.53 10.17ZM13.85 5.95L13.85 5.95L13.85 5.95Q13.46 6.32 13.46 6.73L13.46 6.73L13.46 6.73Q13.46 7.68 14.92 8.71L14.92 8.71L14.92 8.71Q15.57 9.17 15.94 9.50L15.94 9.50L15.94 9.50Q16.77 10.24 16.77 11.10L16.77 11.10L16.77 11.10Q16.77 11.97 15.90 12.50L15.90 12.50L15.90 12.50Q15.04 13.03 13.48 13.03L13.48 13.03L13.48 13.03Q13.66 12.63 13.66 12.31L13.66 12.31L13.66 12.31Q13.66 11.99 13.48 11.69L13.48 11.69L13.48 11.69Q13.30 11.38 13.01 11.13L13.01 11.13L13.01 11.13Q12.72 10.88 12.37 10.62L12.37 10.62L12.37 10.62Q12.02 10.36 11.68 10.10L11.68 10.10L11.68 10.10Q11.33 9.83 11.04 9.55L11.04 9.55L11.04 9.55Q10.39 8.91 10.39 8.18L10.39 8.18L10.39 8.18Q10.39 7.36 10.99 6.85L10.99 6.85L10.99 6.85Q12.02 5.98 13.85 5.95ZM14.91 5.97L14.91 5.97L14.91 5.97Q15.87 5.97 16.56 6.35L16.56 6.35L16.56 6.35Q17.25 6.73 17.25 7.27L17.25 7.27L17.25 7.27Q17.25 8.12 15.67 8.31L15.67 8.31L15.67 8.31Q15.68 8.26 15.68 8.16L15.68 8.16L15.68 8.16Q15.68 7.64 15.35 7.20L15.35 7.20L15.35 7.20Q15.03 6.76 14.44 6.49L14.44 6.49L14.44 6.49Q14.44 6.38 14.59 6.19L14.59 6.19L14.59 6.19Q14.74 6.00 14.91 5.97ZM12.28 13.00L12.28 13.00L12.28 13.00Q11.94 13.03 11.78 13.03L11.78 13.03L11.78 13.03Q10.79 13.03 10.13 12.70L10.13 12.70L10.13 12.70Q9.47 12.38 9.47 11.86L9.47 11.86L9.47 11.86Q9.47 10.81 11.05 10.54L11.05 10.54L11.05 10.54Q11.00 10.83 11.01 11.06L11.01 11.06L11.01 11.06Q11.02 11.28 11.16 11.49L11.16 11.49L11.16 11.49Q11.30 11.71 11.55 11.88L11.55 11.88L11.55 11.88Q12.00 12.18 12.67 12.43L12.67 12.43L12.67 12.43Q12.67 12.54 12.55 12.74L12.55 12.74L12.55 12.74Q12.42 12.94 12.28 13.00ZM20.73 15.84L17.85 15.84L17.85 15.84Q18.90 10.92 19.24 6.64L19.24 6.64L19.24 6.64Q19.24 6.56 19.46 6.38L19.46 6.38L19.46 6.38Q19.67 6.21 19.95 6.18L19.95 6.18L19.95 6.18Q20.23 6.15 21.22 6.09L21.22 6.09L21.22 6.09Q22.21 6.04 22.64 6.04L22.64 6.04L22.64 6.04Q21.90 9.26 21.32 15.39L21.32 15.39L21.32 15.39Q21.32 15.48 21.10 15.66L21.10 15.66L21.10 15.66Q20.88 15.84 20.73 15.84L20.73 15.84ZM22.41 12.97L22.41 12.97L22.41 12.97Q22.93 12.65 23.30 11.96L23.30 11.96L23.30 11.96Q24.00 10.68 24.00 9.12L24.00 9.12L24.00 9.12Q24.00 7.55 23.26 6.47L23.26 6.47L23.26 6.47Q23.26 6.36 23.47 6.19L23.47 6.19L23.47 6.19Q23.69 6.01 23.84 6.01L23.84 6.01L23.84 6.01Q24.75 6.01 25.50 6.38L25.50 6.38L25.50 6.38Q26.24 6.75 26.69 7.46L26.69 7.46L26.69 7.46Q27.15 8.18 27.15 9.11L27.15 9.11L27.15 9.11Q27.15 10.83 25.87 11.90L25.87 11.90L25.87 11.90Q24.60 12.97 22.41 12.97ZM33.69 5.95L33.69 5.95L33.69 5.95Q32.05 7.53 32.05 10.20L32.05 10.20L32.05 10.20Q32.05 11.33 32.35 12.48L32.35 12.48L32.35 12.48Q32.35 12.58 32.13 12.76L32.13 12.76L32.13 12.76Q31.92 12.94 31.77 12.94L31.77 12.94L31.77 12.94Q30.62 12.78 29.78 11.99L29.78 11.99L29.78 11.99Q28.90 11.16 28.90 9.91L28.90 9.91L28.90 9.91Q28.90 8.66 29.52 7.78L29.52 7.78L29.52 7.78Q30.15 6.89 31.23 6.42L31.23 6.42L31.23 6.42Q32.32 5.95 33.69 5.95ZM32.77 13.04L32.77 13.04L32.77 13.04Q34.41 11.46 34.41 8.79L34.41 8.79L34.41 8.79Q34.41 7.66 34.11 6.51L34.11 6.51L34.11 6.51Q34.12 6.41 34.33 6.23L34.33 6.23L34.33 6.23Q34.55 6.05 34.70 6.05L34.70 6.05L34.70 6.05Q35.85 6.21 36.68 7L36.68 7L36.68 7Q37.57 7.83 37.57 9.08L37.57 9.08L37.57 9.08Q37.57 10.33 36.94 11.21L36.94 11.21L36.94 11.21Q36.32 12.10 35.23 12.57L35.23 12.57L35.23 12.57Q34.15 13.04 32.77 13.04ZM42.01 12.97L39.14 12.97L39.14 12.97Q39.74 10.46 40.05 6.63L40.05 6.63L40.05 6.63Q40.05 6.54 40.28 6.36L40.28 6.36L40.28 6.36Q40.50 6.19 40.65 6.19L40.65 6.19L43.52 6.19L43.52 6.19Q42.92 8.74 42.61 12.52L42.61 12.52L42.61 12.52Q42.61 12.61 42.39 12.79L42.39 12.79L42.39 12.79Q42.17 12.97 42.01 12.97L42.01 12.97ZM43.13 5.26L43.13 5.26L40.28 5.26L40.28 5.26Q40.41 4.74 40.45 4.23L40.45 4.23L40.45 4.23Q40.45 4.14 40.67 3.95L40.67 3.95L40.67 3.95Q40.89 3.77 41.04 3.77L41.04 3.77L43.91 3.77L43.91 3.77Q43.83 4.09 43.73 4.81L43.73 4.81L43.73 4.81Q43.73 4.91 43.51 5.09L43.51 5.09L43.51 5.09Q43.30 5.26 43.13 5.26ZM51.73 6.01L51.73 6.01L51.73 6.01Q52.51 6.01 52.51 6.99L52.51 6.99L52.51 6.99Q52.51 7.59 52.30 8.20L52.30 8.20L52.30 8.20Q52.09 8.80 51.77 9.13L51.77 9.13L51.77 9.13Q51.32 8.81 50.66 8.60L50.66 8.60L50.66 8.60Q50.00 8.39 49.40 8.37L49.40 8.37L49.40 8.37Q49.45 8.00 49.62 7.57L49.62 7.57L49.62 7.57Q50.72 6.01 51.73 6.01ZM47.64 12.97L47.64 12.97L44.78 12.97L44.78 12.97Q45.47 9.99 45.76 6.65L45.76 6.65L45.76 6.65Q45.76 6.58 45.98 6.41L45.98 6.41L45.98 6.41Q46.20 6.23 46.44 6.19L46.44 6.19L46.44 6.19Q46.68 6.15 47.66 6.08L47.66 6.08L47.66 6.08Q48.65 6.01 49.18 6.01L49.18 6.01L49.18 6.01Q48.50 9.39 48.23 12.52L48.23 12.52L48.23 12.52Q48.23 12.61 48.02 12.79L48.02 12.79L48.02 12.79Q47.80 12.97 47.64 12.97Z"></path></g><!----><!----></svg>